<svg width="177" height="42" fill="none" xmlns="http://www.w3.org/2000/svg"><path d="M47.868 8.593h8.498v2.492h-5.25v1.134h2.338c1.195 0 2.11.256 2.744.77.644.504.966 1.236.966 2.198 0 .998-.364 1.782-1.092 2.352-.728.569-1.74.854-3.038.854h-5.166v-9.8Zm4.942 7.49c.327 0 .579-.07.756-.21.187-.14.28-.341.28-.602 0-.504-.345-.756-1.036-.756h-1.694v1.568h1.694Zm5.49-7.49h3.248v5.096l3.374-5.096h3.108v9.8h-3.248V13.31l-3.36 5.082H58.3v-9.8Zm11.47 0h8.498v2.492h-5.25v1.134h2.338c1.195 0 2.11.256 2.744.77.644.504.966 1.236.966 2.198 0 .998-.364 1.782-1.092 2.352-.728.569-1.74.854-3.038.854H69.77v-9.8Zm4.942 7.49c.327 0 .579-.07.756-.21.187-.14.28-.341.28-.602 0-.504-.345-.756-1.036-.756h-1.694v1.568h1.694Zm14.847-7.49v9.8H86.31v-7.238h-2.24l-.028 1.134c-.037 1.4-.15 2.548-.336 3.444-.187.896-.513 1.596-.98 2.1-.467.494-1.134.742-2.002.742-.439 0-.905-.061-1.4-.182l.168-2.646c.121.028.243.042.364.042.345 0 .607-.14.784-.42.187-.28.313-.654.378-1.12.065-.467.112-1.078.14-1.834l.126-3.822h8.274Zm1.73 0h3.249v5.096l3.374-5.096h3.108v9.8h-3.248V13.31l-3.36 5.082H91.29v-9.8Zm16.456 10.024c-1.055 0-2.002-.22-2.842-.658a4.959 4.959 0 0 1-1.974-1.82c-.476-.784-.714-1.666-.714-2.646s.238-1.858.714-2.632a4.926 4.926 0 0 1 1.974-1.834c.84-.439 1.787-.658 2.842-.658 1.054 0 2.002.219 2.842.658a4.926 4.926 0 0 1 1.974 1.834c.476.774.714 1.652.714 2.632 0 .98-.238 1.862-.714 2.646a4.959 4.959 0 0 1-1.974 1.82c-.84.438-1.788.658-2.842.658Zm0-2.674c.41 0 .779-.098 1.106-.294.336-.206.602-.49.798-.854.196-.374.294-.808.294-1.302 0-.495-.098-.924-.294-1.288a2.08 2.08 0 0 0-.798-.854 2.038 2.038 0 0 0-1.106-.308c-.411 0-.784.102-1.12.308a2.11 2.11 0 0 0-.784.854c-.196.364-.294.793-.294 1.288 0 .494.098.928.294 1.302.196.364.457.648.784.854.336.196.709.294 1.12.294Zm14.926-4.788h-2.87v7.238h-3.248v-7.238h-2.87V8.593h8.988v2.562Zm9.238 4.746v2.492h-8.148v-9.8h7.966v2.492h-4.718v1.148h4.144v2.38h-4.144V15.9h4.9Zm10.314-7.308v9.8h-3.248v-3.136c-.653.196-1.246.294-1.778.294-1.437 0-2.534-.341-3.29-1.022-.747-.682-1.12-1.676-1.12-2.982V8.593h3.248v2.59c0 .597.131 1.04.392 1.33.261.28.658.42 1.19.42.551 0 1.003-.075 1.358-.224V8.593h3.248Zm11.391 0v9.8h-3.304V14.78h-3.052v3.612h-3.304v-9.8h3.304v3.472h3.052V8.593h3.304Zm8.658 8.092h-3.724l-.658 1.708h-3.36l4.284-9.8h3.248l4.284 9.8h-3.416l-.658-1.708Zm-.91-2.38-.952-2.464-.952 2.464h1.904Zm13.924-5.712v9.8h-3.248v-2.324h-.882l-1.498 2.324H166.2l1.932-2.8c-.634-.299-1.124-.719-1.47-1.26-.336-.551-.504-1.2-.504-1.946 0-.775.182-1.447.546-2.016.374-.57.901-1.008 1.582-1.316.682-.308 1.484-.462 2.408-.462h4.592Zm-4.536 2.548c-.84 0-1.26.396-1.26 1.19 0 .83.42 1.246 1.26 1.246h1.288V11.14h-1.288ZM53.796 29.35h-1.56v3.043h-.923v-6.838h.923v3.003h1.573l2.405-3.003h1.001l-2.691 3.315 2.886 3.523h-1.092l-2.522-3.042Zm5.07-3.795h.924v3.029h4.303v-3.03h.923v6.839h-.923v-3.016H59.79v3.016h-.923v-6.838Zm8.773 0h.923v5.434l4.563-5.434h.82v6.838h-.924v-5.434l-4.55 5.434h-.832v-6.838Zm14.943 3.796H81.1v3.042h-.923V29.35h-1.482l-2.093 3.042h-1.105l2.457-3.523-2.262-3.315h1.001l2.002 3.003h1.482v-3.003h.923v3.003h1.482l2.015-3.003h1.001l-2.262 3.328 2.457 3.51h-1.105l-2.106-3.042Zm4.748-3.796h.923v3.029h4.303v-3.03h.923v6.839h-.923v-3.016h-4.303v3.016h-.923v-6.838Zm11.645 2.418c.858.008 1.512.199 1.963.572.451.372.676.91.676 1.612 0 .728-.243 1.287-.728 1.677-.485.39-1.179.58-2.08.572l-2.704-.013v-6.838h.923v2.392l1.95.026Zm3.783-2.418h.923v6.838h-.923v-6.838Zm-4.004 6.149c.633.008 1.11-.117 1.43-.377.329-.269.494-.659.494-1.17 0-.503-.16-.876-.481-1.118-.32-.243-.802-.369-1.443-.377l-1.729-.026v3.042l1.73.026Zm7.555-6.15h.923v5.435l4.563-5.434h.819v6.838h-.923v-5.434l-4.55 5.434h-.832v-6.838Zm3.107-.987c-.589 0-1.057-.148-1.404-.442-.347-.295-.524-.711-.533-1.248h.663c.009.338.13.61.364.819.234.199.537.299.91.299s.676-.1.91-.3c.243-.207.368-.48.377-.818h.663c-.009.537-.191.953-.546 1.248-.347.294-.815.442-1.404.442Zm16.89.988v6.838h-.845v-5.408l-2.769 4.576h-.416l-2.769-4.59v5.422h-.845v-6.838h.936l2.899 4.927 2.951-4.927h.858Zm4.979-.052c.893 0 1.577.225 2.054.676.477.442.715 1.1.715 1.976v4.238h-.884v-1.066a2.112 2.112 0 0 1-.923.832c-.399.199-.875.299-1.43.299-.763 0-1.369-.182-1.82-.546-.451-.364-.676-.845-.676-1.443 0-.581.208-1.049.624-1.404.425-.356 1.096-.533 2.015-.533h2.171v-.416c0-.59-.165-1.036-.494-1.34-.329-.311-.81-.467-1.443-.467-.433 0-.849.073-1.248.22a3.055 3.055 0 0 0-1.027.586l-.416-.69a3.61 3.61 0 0 1 1.248-.675 4.74 4.74 0 0 1 1.534-.247Zm-.325 6.227c.52 0 .966-.117 1.339-.351.373-.243.65-.59.832-1.04V29.22h-2.145c-1.17 0-1.755.407-1.755 1.222 0 .398.152.715.455.949.303.225.728.338 1.274.338Zm10.387-5.356h-3.913v6.019h-.923v-6.838h4.836v.819Zm3.687-.871c.893 0 1.577.225 2.054.676.477.442.715 1.1.715 1.976v4.238h-.884v-1.066a2.112 2.112 0 0 1-.923.832c-.399.199-.875.299-1.43.299-.763 0-1.369-.182-1.82-.546-.451-.364-.676-.845-.676-1.443 0-.581.208-1.049.624-1.404.425-.356 1.096-.533 2.015-.533h2.171v-.416c0-.59-.165-1.036-.494-1.34-.329-.311-.81-.467-1.443-.467-.433 0-.849.073-1.248.22a3.055 3.055 0 0 0-1.027.586l-.416-.69a3.61 3.61 0 0 1 1.248-.675 4.74 4.74 0 0 1 1.534-.247Zm-.325 6.227c.52 0 .966-.117 1.339-.351.373-.243.65-.59.832-1.04V29.22h-2.145c-1.17 0-1.755.407-1.755 1.222 0 .398.152.715.455.949.303.225.728.338 1.274.338Zm8.74-2.9c.485.113.858.308 1.118.586.268.277.403.615.403 1.014 0 .398-.139.754-.416 1.066-.269.312-.637.554-1.105.728a4.634 4.634 0 0 1-1.547.247c-.494 0-.98-.07-1.456-.208a3.85 3.85 0 0 1-1.248-.637l.312-.69c.312.235.676.417 1.092.547.416.13.836.195 1.261.195.632 0 1.148-.117 1.547-.351.407-.243.611-.568.611-.975 0-.364-.165-.646-.494-.845-.33-.208-.78-.312-1.352-.312h-1.17v-.676h1.118c.511 0 .923-.096 1.235-.286.312-.2.468-.464.468-.793 0-.364-.178-.65-.533-.858-.347-.208-.802-.312-1.365-.312-.737 0-1.465.186-2.184.559l-.26-.715a5.413 5.413 0 0 1 2.535-.637c.52 0 .988.078 1.404.234.424.147.754.36.988.637.242.277.364.598.364.962 0 .346-.122.654-.364.923-.234.268-.555.468-.962.598Zm3.616-3.275h.923v5.434l4.563-5.434h.819v6.838h-.923v-5.434l-4.55 5.434h-.832v-6.838Zm8.95 0h.923v3.029h4.303v-3.03h.923v6.839h-.923v-3.016h-4.303v3.016h-.923v-6.838Z" fill="#fff"/><path stroke="#fff" stroke-opacity=".59" d="M48 20.893h127"/><g clip-path="url(#a)"><path d="M39.004 14.904c-.17-1.277-.194-3.476.992-4.214.021-.013.037-.033.055-.05.97-.31 1.64-.745 1.114-1.33L26.863 5 3.705 8.22s-2.652.379-2.415 4.499c.129 2.242.832 3.343 1.447 3.885l-1.9.573c-.528.586.143 1.021 1.113 1.33.018.018.034.037.055.05 1.186.74 1.163 2.939.992 4.216C-1.26 23.982.268 24.376.268 24.376l.934.226c-.657.593-1.31 1.719-1.187 3.854.237 4.12 2.415 4.403 2.415 4.403l15.155 4.926 22.873-5.54s1.53-.395-2.73-1.604c-.17-1.275-.194-3.473.993-4.214.022-.013.038-.033.056-.05.97-.31 1.64-.745 1.113-1.33l-.994-.3c.663-.4 1.659-1.445 1.815-4.16.108-1.867-.38-2.96-.943-3.604l1.965-.476s1.529-.394-2.73-1.603Zm-19.133-.053 3.847-.79 12.999-2.671 1.936-.399c-.618 1.133-.593 2.683-.49 3.68.022.225.048.43.073.587l-2.12.527-16.407 4.081.162-5.014Zm-16.523 4.01 1.936.398 12.484 2.566 1.09.223 3.271.673.162 5.015L5.428 23.54l-1.663-.413c.025-.157.05-.362.074-.588.102-.996.128-2.546-.491-3.679Zm-.752-6.34c-.024-1.096.172-1.889.566-2.292.251-.257.548-.31.751-.31.108 0 .185.014.19.014l9.978 3.253 4.979 1.623-.164 5.05L4.93 15.945l-.737-.206a.439.439 0 0 0-.092-.015c-.057-.004-1.438-.13-1.505-3.203ZM17.62 35.596 2.918 31.475a.438.438 0 0 0-.092-.014c-.058-.004-1.44-.131-1.507-3.202-.023-1.097.173-1.89.567-2.292.252-.258.548-.311.751-.311.108 0 .185.014.19.014 0 0 .001 0 0 0l14.956 4.877-.162 5.05Zm19.266-5.19c.023.226.049.432.074.588l-18.528 4.61.162-5.015 3.961-.815.585.142 2.193-.713 10.106-2.077 1.938-.398c-.62 1.132-.594 2.683-.491 3.678Zm1.02-6.815a.358.358 0 0 0-.099.015l-1.397.391-13.305 3.73-.163-5.049 4.365-1.424 10.57-3.447c.001 0 .556-.124.963.29.394.403.59 1.196.567 2.292-.07 3.07-1.45 3.198-1.5 3.202Z" fill="#fff"/></g><defs><clipPath id="a"><path fill="#fff" d="M0 0h42v42H0z"/></clipPath></defs></svg>